<svg height="113" viewBox="0 0 141 113" width="141" xmlns="http://www.w3.org/2000/svg" xmlns:xlink="http://www.w3.org/1999/xlink"><mask id="a" fill="#fff"><path d="m0 113h146.783505v-113h-146.783505z" fill="#fff" fill-rule="evenodd"/></mask><g fill="none" fill-rule="evenodd" transform="translate(-4)"><path d="m119.996272 111.835052c9.415488-10.35913 15.137749-24.3117268 15.137749-39.4897701 0-32.8929225-26.860537-59.5308489-59.9948457-59.5308489-33.1343083 0-59.9948454 26.6241143-59.9948454 59.5170367 0 15.1780433 5.7222606 29.1444523 15.1377484 39.5035823z" fill="#f7f7f7"/><path d="m48.8922877 111.835052h54.8236723c12.644424-8.431399 20.933525-23.0587258 20.933525-39.4459153 0-26.4834062-21.644859-47.9252192-48.3455545-47.9252192-26.7003094 0-48.3451676 21.4280162-48.3451676 47.9114223 0 16.3871896 8.2891009 31.0283132 20.9335248 39.4597122" fill="#ededed"/><path d="m20.3865979 64.0721649c-2.2525596 0-4.0773195 1.8259673-4.0773195 4.076542 0 2.25213 1.8247599 4.0780972 4.0773195 4.0780972 2.2525597 0 4.0773196-1.8259672 4.0773196-4.0780972 0-2.2505747-1.8247599-4.076542-4.0773196-4.076542m0 1.5553384c1.3907378 0 2.5216845 1.1322864 2.5216845 2.5212036 0 1.3920278-1.1309467 2.5227588-2.5216845 2.5227588-1.3907377 0-2.5216845-1.130731-2.5216845-2.5227588 0-1.3889172 1.1309468-2.5212036 2.5216845-2.5212036" fill="#004cb8"/><path d="m82.128866 0c-2.2525596 0-4.0773196 1.82596727-4.0773196 4.07654192 0 2.25212999 1.82476 4.07809726 4.0773196 4.07809726s4.0773196-1.82596727 4.0773196-4.07809726c0-2.25057465-1.82476-4.07654192-4.0773196-4.07654192m0 1.55533839c1.3907378 0 2.5216845 1.13228635 2.5216845 2.52120353 0 1.39202786-1.1309467 2.52275887-2.5216845 2.52275887s-2.5216845-1.13073101-2.5216845-2.52275887c0-1.38891718 1.1309467-2.52120353 2.5216845-2.52120353" fill="#febb02"/><path d="m19.8041237 92.0309278c0 1.2868226-1.0431684 2.3298969-2.330107 2.3298969-1.2865184 0-2.3296868-1.0430743-2.3296868-2.3298969 0-1.2868225 1.0431684-2.3298969 2.3296868-2.3298969 1.2869386 0 2.330107 1.0430744 2.330107 2.3298969" fill="#004cb8"/><path d="m9.31958763 53.5876289c0 1.2868225-1.04316842 2.3298969-2.33010706 2.3298969-1.28651834 0-2.32968676-1.0430744-2.32968676-2.3298969 0-1.2868226 1.04316842-2.3298969 2.32968676-2.3298969 1.28693864 0 2.33010706 1.0430743 2.33010706 2.3298969" fill="#feba02"/><path d="m142.123711 66.4020619c0 1.2868225-1.043168 2.3298969-2.330107 2.3298969-1.286518 0-2.329686-1.0430744-2.329686-2.3298969 0-1.2868226 1.043168-2.329897 2.329686-2.329897 1.286939 0 2.330107 1.0430744 2.330107 2.329897" fill="#feba02"/><path d="m106.010309 24.4639175c0 1.2868226-1.043168 2.3298969-2.330107 2.3298969-1.286518 0-2.329687-1.0430743-2.329687-2.3298969 0-1.2868225 1.043169-2.3298969 2.329687-2.3298969 1.286939 0 2.330107 1.0430744 2.330107 2.3298969" fill="#feba02"/><path d="m59.4123711 16.3092784c0 1.2868225-1.0431684 2.3298969-2.330107 2.3298969-1.2865184 0-2.3296868-1.0430744-2.3296868-2.3298969 0-1.2868226 1.0431684-2.329897 2.3296868-2.329897 1.2869386 0 2.330107 1.0430744 2.330107 2.329897" fill="#004cb8"/><path d="m126.979381 17.4742268c0 1.2868226-1.043168 2.3298969-2.330107 2.3298969-1.286518 0-2.329686-1.0430743-2.329686-2.3298969s1.043168-2.3298969 2.329686-2.3298969c1.286939 0 2.330107 1.0430743 2.330107 2.3298969" fill="#004cb8"/><path d="m26.7938144 29.1237113c0 1.2868226-1.0431684 2.3298969-2.330107 2.3298969-1.2865184 0-2.3296868-1.0430743-2.3296868-2.3298969 0-1.2868225 1.0431684-2.3298969 2.3296868-2.3298969 1.2869386 0 2.330107 1.0430744 2.330107 2.3298969" fill="#feba02"/><path d="m45.3970107 110.670103c-1.2670073 0-2.2939179-1.037819-2.2939179-2.318285v-38.4665231c0-1.2800795 1.0269106-2.3182846 2.2939179-2.3182846h60.6492773c1.267008 0 2.293918 1.0382051 2.293918 2.3182846v38.4665231c0 1.280466-1.02691 2.318285-2.293918 2.318285z" fill="#feba02"/><path d="m72.2268041 110.670103h6.9896907v-41.9381442h-6.9896907z" fill="#fff" mask="url(#a)"/><path d="m45.2537669 65.2371134h2.5091197v45.4329896h-2.5091197c-1.187889 0-2.1506741-1.035397-2.1506741-2.312013v-40.8089632c0-1.2770021.9627851-2.3120134 2.1506741-2.3120134" fill="#d89d00" mask="url(#a)"/><path d="m105.719072 110.670103h-.873711v-43.1030927h.873711c1.44774 0 2.621134.9822994 2.621134 2.1934486v38.7161951c0 1.211515-1.173394 2.193449-2.621134 2.193449" fill="#fcd66f" mask="url(#a)"/><path d="m104.845361 68.7319588h3.494845v8.1546391h-3.494845z" fill="#fcd66f" mask="url(#a)"/><g mask="url(#a)"><g transform="translate(40.5 35)"><path d="m37.351862 13.7145592c.6116869-1.660831 2.0121382-3.5633702 4.1790266-4.41607361 3.6327814-1.42988252 7.193192.91649281 6.5672619 5.17232431-.3988091 2.7098983-2.789354 5.3206539-5.398936 5.4931928-4.2171367.2785985-6.1341921.3443093-6.1341921.3443093s-.3710926-3.4503938.7868396-6.5937528m-3.1835437 9.0577159s2.9598873-.1014483 9.4717162-.5318349c4.0296657-.2663016 7.7209595-4.2977173 8.3368809-8.4816895.9666117-6.57146493-4.5312567-10.19478185-10.1407607-7.98712932-3.345608 1.31652177-5.508262 4.25429432-6.4529314 6.81893722-1.7880968 4.8537613-1.214905 10.1817165-1.214905 10.1817165" fill="#e2a808"/><path d="m32.0037011 18.7919679s-2.2219364.1099023-7.1096576-.2128877c-3.024559-.1998223-5.7954353-3.2255936-6.2573764-6.3662627-.7260173-4.93292177 3.401041-7.65242689 7.6116336-5.99543861 2.5110345.98835201 4.1343723 3.1936989 4.8434518 5.11852601 1.3419387 3.6432991.9119486 7.456063.9119486 7.456063m1.9459266-9.08307798c-1.2122102-3.29053587-3.9865512-7.0598768-8.2791383-8.74914408-7.1974264-2.8324816-14.2516511 1.81607761-13.0109544 10.24781156.7899192 5.3683039 5.5263547 10.5406282 10.6962448 10.8822475 8.3549737.5522014 12.152514.6824702 12.152514.6824702s.7352562-6.8358453-1.5586661-13.06338518" fill="#eeb109"/><path d="m.98990339 34.9288127c-.42537071 0-.76990174-.343925-.76990174-.7685475v-11.7795266c0-.4242382.34453103-.7685475.76990174-.7685475h67.72171171c.4253707 0 .7699017.3443093.7699017.7685475v11.7795266c0 .4246225-.344531.7685475-.7699017.7685475z" fill="#eeb109"/><path d="m5.96462347 34.9288127h-4.97472008c-.42537071 0-.76990174-.343925-.76990174-.7685475v-11.7795266c0-.4242382.34453103-.7685475.76990174-.7685475h4.97472008z" fill="#daa001"/><path d="m67.2806372 21.6123448h1.5101623c.4253707 0 .7699017.343925.7699017.7685475v11.7795266c0 .4242382-.344531.7685475-.7699017.7685475h-1.5101623z" fill="#ffce48"/><path d="m29.0766502 34.1999223h11.548526v-11.8586871h-11.548526z" fill="#fff"/></g></g><g fill="#6a6a6a"><path d="m117.865864 113h-84.2884295c-.5296841 0-.9588778-.521431-.9588778-1.164948 0-.643518.4291937-1.164949.9588778-1.164949h84.2884295c.529685 0 .958878.521431.958878 1.164949 0 .643517-.429193 1.164948-.958878 1.164948" mask="url(#a)"/><path d="m130.668385 113h-7.378007c-.536265 0-.97079-.521431-.97079-1.164948 0-.643518.434525-1.164949.97079-1.164949h7.378007c.536264 0 .97079.521431.97079 1.164949 0 .643517-.434526 1.164948-.97079 1.164948" mask="url(#a)"/><path d="m136.590206 113h-1.747422c-.482639 0-.873712-.521431-.873712-1.164948 0-.643518.391073-1.164949.873712-1.164949h1.747422c.482638 0 .873712.521431.873712 1.164949 0 .643517-.391074 1.164948-.873712 1.164948" mask="url(#a)"/><path d="m28.152921 113h-7.3780069c-.5362646 0-.9707904-.521431-.9707904-1.164948 0-.643518.4345258-1.164949.9707904-1.164949h7.3780069c.5362646 0 .9707903.521431.9707903 1.164949 0 .643517-.4345257 1.164948-.9707903 1.164948" mask="url(#a)"/><path d="m15.435567 113h-1.7474227c-.4826381 0-.8737113-.521431-.8737113-1.164948 0-.643518.3910732-1.164949.8737113-1.164949h1.7474227c.4826382 0 .8737114.521431.8737114 1.164949 0 .643517-.3910732 1.164948-.8737114 1.164948" mask="url(#a)"/></g><path d="m122.902062 40.7731959c-2.25256 0-4.07732 1.8259672-4.07732 4.0765419 0 2.25213 1.82476 4.0780973 4.07732 4.0780973 2.252559 0 4.077319-1.8259673 4.077319-4.0780973 0-2.2505747-1.82476-4.0765419-4.077319-4.0765419m0 1.5553384c1.390738 0 2.521684 1.1322863 2.521684 2.5212035 0 1.3920279-1.130946 2.5227589-2.521684 2.5227589s-2.521685-1.130731-2.521685-2.5227589c0-1.3889172 1.130947-2.5212035 2.521685-2.5212035" fill="#004cb8" mask="url(#a)"/><path d="m32.0360825 10.4845361c-2.2525596 0-4.0773196 1.8259673-4.0773196 4.0765419 0 2.25213 1.82476 4.0780973 4.0773196 4.0780973s4.0773196-1.8259673 4.0773196-4.0780973c0-2.2505746-1.82476-4.0765419-4.0773196-4.0765419m0 1.5553384c1.3907378 0 2.5216845 1.1322863 2.5216845 2.5212035 0 1.3920279-1.1309467 2.5227589-2.5216845 2.5227589s-2.5216845-1.130731-2.5216845-2.5227589c0-1.3889172 1.1309467-2.5212035 2.5216845-2.5212035" fill="#004cb8" mask="url(#a)"/><path d="m140.376289 39.6082474c-2.25256 0-4.07732 1.8259673-4.07732 4.0765419 0 2.25213 1.82476 4.0780973 4.07732 4.0780973 2.252559 0 4.077319-1.8259673 4.077319-4.0780973 0-2.2505746-1.82476-4.0765419-4.077319-4.0765419m0 1.5553384c1.390737 0 2.521684 1.1322864 2.521684 2.5212035 0 1.3920279-1.130947 2.5227589-2.521684 2.5227589-1.390738 0-2.521685-1.130731-2.521685-2.5227589 0-1.3889171 1.130947-2.5212035 2.521685-2.5212035" fill="#feba02" mask="url(#a)"/><path d="m131.056701 85.0412371c-2.25256 0-4.07732 1.8259673-4.07732 4.0765419 0 2.25213 1.82476 4.0780973 4.07732 4.0780973s4.07732-1.8259673 4.07732-4.0780973c0-2.2505746-1.82476-4.0765419-4.07732-4.0765419m0 1.5553384c1.390738 0 2.521685 1.1322864 2.521685 2.5212035 0 1.3920279-1.130947 2.5227589-2.521685 2.5227589s-2.521684-1.130731-2.521684-2.5227589c0-1.3889171 1.130946-2.5212035 2.521684-2.5212035" fill="#004cb8" mask="url(#a)"/></g></svg>